<svg width="1594" height="1594" viewBox="0 0 1594 1594" fill="none" xmlns="http://www.w3.org/2000/svg">
<circle r="797" transform="matrix(1 0 0 -1 797 797)" fill="white" fill-opacity="0.17"/>
<circle cx="797" cy="797" r="553" fill="white" fill-opacity="0.17"/>
<path d="M999.423 787.847C999.423 787.85 999.42 787.851 999.418 787.85L636.734 578.505C635.038 577.527 633.114 577.011 631.156 577.011C629.198 577.011 627.274 577.526 625.578 578.505C623.882 579.484 622.474 580.892 621.495 582.588C620.516 584.283 620 586.206 620 588.164V1006.85C620 1008.8 620.516 1010.73 621.495 1012.42C622.474 1014.12 623.882 1015.53 625.578 1016.51C627.274 1017.48 629.198 1018 631.156 1018C633.114 1018 635.038 1017.48 636.734 1016.51L999.423 807.158C1001.12 806.18 1002.53 804.772 1003.51 803.076C1004.48 801.381 1005 799.458 1005 797.5C1005 795.542 1004.48 793.619 1003.51 791.924C1002.53 790.228 1001.12 788.82 999.423 787.842L636.734 578.494C635.038 577.515 633.114 577 631.156 577C629.198 577 627.274 577.515 625.578 578.494C623.882 579.473 622.474 580.881 621.495 582.576C620.516 584.272 620 586.195 620 588.153V1006.85C620 1008.8 620.516 1010.73 621.495 1012.42C622.474 1014.12 623.882 1015.53 625.578 1016.51C627.274 1017.48 629.198 1018 631.156 1018C633.114 1018 635.038 1017.48 636.734 1016.51L999.423 807.158C1001.12 806.18 1002.53 804.772 1003.51 803.076C1004.48 801.381 1005 799.458 1005 797.5C1005 795.542 1004.48 793.619 1003.51 791.924C1002.53 790.23 1001.12 788.823 999.427 787.844C999.425 787.843 999.423 787.845 999.423 787.847V787.847Z" fill="white"/>
</svg>
